<svg xmlns="http://www.w3.org/2000/svg" width="200" height="40" fill="none"><path fill="#E42828" d="m9.696 10.22-1.088.192c-.256.064-.453.165-.592.304a.692.692 0 0 0-.192.512v18.016c0 .373.117.645.352.816.235.17.603.256 1.104.256h3.44c.608 0 1.125-.08 1.552-.24.427-.17.805-.459 1.136-.864.341-.416.677-1.003 1.008-1.76l.944-2.224c.096-.203.208-.341.336-.416.128-.075.283-.09.464-.048.192.043.325.128.4.256.085.128.096.31.032.544l-1.376 5.68c-.075.288-.181.501-.32.64-.128.139-.31.208-.544.208-.192 0-.379-.048-.56-.144a16.135 16.135 0 0 0-.608-.304c-.224-.096-.512-.144-.864-.144H2.432c-.245 0-.427-.048-.544-.144a.471.471 0 0 1-.176-.384c0-.299.187-.496.56-.592l1.104-.192c.256-.064.448-.16.576-.288a.748.748 0 0 0 .192-.528V11.228a.692.692 0 0 0-.192-.512c-.128-.139-.32-.24-.576-.304l-1.104-.192c-.373-.096-.56-.293-.56-.592 0-.17.059-.299.176-.384.117-.096.299-.144.544-.144h7.12c.245 0 .421.048.528.144.117.085.176.213.176.384 0 .299-.187.496-.56.592Zm24.861 12.016c0 .448-.133.795-.4 1.04-.266.235-.65.352-1.151.352H22.813v-.944h7.616c.49 0 .736-.219.736-.656 0-1.461-.305-2.597-.913-3.408-.608-.81-1.424-1.216-2.448-1.216-.8 0-1.503.235-2.111.704-.608.459-1.083 1.115-1.424 1.968-.342.853-.512 1.856-.512 3.008 0 2.133.5 3.755 1.504 4.864 1.013 1.099 2.335 1.648 3.968 1.648 1.055 0 1.968-.245 2.735-.736.78-.49 1.323-1.147 1.632-1.968a1.65 1.65 0 0 1 .304-.336.446.446 0 0 1 .272-.096.31.31 0 0 1 .288.176c.065.117.091.256.08.416-.063.885-.378 1.696-.944 2.432-.565.725-1.317 1.307-2.256 1.744-.938.427-2.005.64-3.2.64-1.471 0-2.773-.31-3.903-.928a6.715 6.715 0 0 1-2.625-2.64c-.618-1.13-.927-2.453-.927-3.968 0-1.557.303-2.939.912-4.144a7.131 7.131 0 0 1 2.623-2.88c1.131-.704 2.47-1.056 4.017-1.056 1.29 0 2.405.256 3.343.768.95.512 1.68 1.216 2.192 2.112.523.896.784 1.93.784 3.104Zm15.344 7.2a1 1 0 0 0 .176.608c.128.15.315.235.56.256l1.648.192c.203.021.352.08.448.176a.428.428 0 0 1 .144.336c0 .33-.218.496-.656.496h-7.184a.771.771 0 0 1-.464-.128.41.41 0 0 1-.16-.336c0-.15.048-.267.144-.352.096-.085.24-.15.432-.192l.832-.16c.267-.075.459-.176.576-.304.128-.139.192-.33.192-.576V19.02a.805.805 0 0 0-.144-.496c-.096-.139-.277-.25-.544-.336l-1.008-.256c-.298-.096-.501-.192-.608-.288a.474.474 0 0 1-.16-.336c0-.128.048-.23.144-.304.107-.085.262-.128.464-.128h2.592l-.72.512v-.512c0-.352-.08-.683-.24-.992-.15-.32-.33-.645-.544-.976a6.854 6.854 0 0 1-.56-1.12c-.15-.416-.224-.896-.224-1.44 0-1.227.422-2.213 1.264-2.96.843-.757 1.99-1.136 3.44-1.136.928 0 1.718.155 2.368.464.65.31 1.142.715 1.472 1.216.342.501.512 1.05.512 1.648 0 .576-.144 1.013-.432 1.312-.277.299-.645.448-1.104.448-.49 0-.885-.155-1.184-.464-.288-.32-.432-.741-.432-1.264v-.832c0-.523-.138-.923-.416-1.2-.277-.288-.677-.432-1.2-.432-.65.01-1.152.219-1.504.624-.352.405-.528.976-.528 1.712 0 .47.08.901.24 1.296.16.384.363.741.608 1.072.246.33.486.65.72.96.246.31.448.63.608.96.16.32.24.661.24 1.024v.624l-.416-.544h3.68c.203 0 .358.037.464.112.107.075.16.181.16.32 0 .213-.106.39-.32.528-.202.128-.528.192-.976.192h-2.4v11.408Zm19.375-7.2c0 .448-.133.795-.4 1.04-.266.235-.65.352-1.152.352H57.532v-.944h7.616c.49 0 .736-.219.736-.656 0-1.461-.304-2.597-.912-3.408-.608-.81-1.424-1.216-2.448-1.216-.8 0-1.504.235-2.112.704-.608.459-1.082 1.115-1.424 1.968-.341.853-.512 1.856-.512 3.008 0 2.133.502 3.755 1.504 4.864 1.014 1.099 2.336 1.648 3.968 1.648 1.056 0 1.968-.245 2.736-.736.779-.49 1.323-1.147 1.632-1.968.118-.16.219-.272.304-.336a.446.446 0 0 1 .272-.096.31.31 0 0 1 .288.176.75.75 0 0 1 .08.416c-.064.885-.378 1.696-.944 2.432-.565.725-1.317 1.307-2.256 1.744-.938.427-2.005.64-3.2.64-1.472 0-2.773-.31-3.904-.928a6.715 6.715 0 0 1-2.624-2.64c-.618-1.13-.928-2.453-.928-3.968 0-1.557.304-2.939.912-4.144a7.13 7.13 0 0 1 2.624-2.88c1.13-.704 2.47-1.056 4.016-1.056 1.29 0 2.406.256 3.344.768.95.512 1.68 1.216 2.192 2.112.523.896.784 1.93.784 3.104Zm14.04 7.536v-1.136l-.08-.08v-9.232c0-.224-.037-.384-.112-.48-.075-.107-.203-.165-.384-.176l-1.088-.048c-.17-.021-.293-.07-.368-.144a.37.37 0 0 1-.112-.272c0-.128.043-.23.128-.304.085-.085.235-.17.448-.256l2.784-.944c.31-.117.56-.197.752-.24.192-.053.363-.08.512-.08.256 0 .443.07.56.208.128.139.192.325.192.56v12.288c0 .267.048.47.144.608a.828.828 0 0 0 .464.288l.752.16c.181.053.315.123.4.208a.434.434 0 0 1 .128.32c0 .15-.059.267-.176.352-.107.085-.272.128-.496.128h-2.912c-.47 0-.843-.15-1.12-.448-.277-.31-.416-.736-.416-1.28Zm-9.968-2.576v-7.872c0-.224-.037-.384-.112-.48-.075-.107-.203-.165-.384-.176l-1.104-.048c-.16-.021-.277-.07-.352-.144a.37.37 0 0 1-.112-.272c0-.128.043-.23.128-.304.085-.085.235-.17.448-.256l2.784-.944c.32-.117.576-.197.768-.24.192-.053.352-.08.48-.08.256 0 .448.07.576.208.128.139.192.325.192.56V26.7c0 1.077.256 1.877.768 2.4.523.523 1.21.784 2.064.784.533 0 1.099-.133 1.696-.4.608-.267 1.253-.693 1.936-1.28l.672-.576.576.576-.688.592c-1.248 1.13-2.341 1.925-3.28 2.384-.928.448-1.819.672-2.672.672-1.312 0-2.373-.416-3.184-1.248-.8-.832-1.2-1.968-1.2-3.408Zm36.063 1.76-.08-.112v-18c0-.224-.038-.384-.112-.48-.075-.107-.198-.165-.368-.176l-1.104-.048c-.171-.021-.294-.07-.368-.144a.404.404 0 0 1-.096-.272c0-.128.037-.235.112-.32.085-.085.24-.165.464-.24l2.768-.944c.309-.117.56-.197.752-.24.192-.053.368-.08.528-.08.245 0 .432.07.56.208.128.139.192.325.192.56v20.768c0 .267.048.47.144.608a.825.825 0 0 0 .464.288l.752.16a.94.94 0 0 1 .4.208.435.435 0 0 1 .128.32c0 .15-.059.267-.176.352-.107.085-.272.128-.496.128h-2.976c-.448 0-.811-.128-1.088-.384-.267-.256-.4-.63-.4-1.12v-1.04Zm-11.585-4.544c0-1.675.326-3.12.977-4.336.66-1.227 1.546-2.17 2.656-2.832 1.12-.661 2.357-.992 3.712-.992 1.248 0 2.357.304 3.328.912.97.608 1.749 1.467 2.336 2.576l-.736.736c-.523-.928-1.163-1.637-1.92-2.128a4.37 4.37 0 0 0-2.448-.736c-.832 0-1.584.235-2.256.704-.672.459-1.206 1.163-1.6 2.112-.384.95-.576 2.15-.576 3.6 0 1.365.186 2.507.56 3.424.373.907.88 1.595 1.52 2.064.65.459 1.386.688 2.208.688.832 0 1.626-.24 2.384-.72.757-.48 1.45-1.205 2.08-2.176l.496.768c-.822 1.216-1.76 2.155-2.816 2.816a6.41 6.41 0 0 1-3.424.976c-1.248 0-2.363-.315-3.344-.944-.971-.64-1.74-1.52-2.304-2.64-.555-1.12-.833-2.41-.833-3.872Zm32.825-2.176c0 .448-.133.795-.4 1.04-.266.235-.65.352-1.152.352h-10.192v-.944h7.616c.491 0 .736-.219.736-.656 0-1.461-.304-2.597-.912-3.408-.608-.81-1.424-1.216-2.448-1.216-.8 0-1.504.235-2.112.704-.608.459-1.082 1.115-1.424 1.968-.341.853-.512 1.856-.512 3.008 0 2.133.502 3.755 1.504 4.864 1.014 1.099 2.336 1.648 3.968 1.648 1.056 0 1.968-.245 2.736-.736.779-.49 1.323-1.147 1.632-1.968a1.68 1.68 0 0 1 .304-.336.447.447 0 0 1 .272-.096.31.31 0 0 1 .288.176.746.746 0 0 1 .08.416 4.443 4.443 0 0 1-.944 2.432c-.565.725-1.317 1.307-2.256 1.744-.938.427-2.005.64-3.2.64-1.472 0-2.773-.31-3.904-.928a6.72 6.72 0 0 1-2.624-2.64c-.618-1.13-.928-2.453-.928-3.968 0-1.557.304-2.939.912-4.144a7.138 7.138 0 0 1 2.624-2.88c1.131-.704 2.47-1.056 4.016-1.056 1.291 0 2.406.256 3.344.768.95.512 1.68 1.216 2.192 2.112.523.896.784 1.93.784 3.104Zm14.048-13.568V29.58l-1.52 1.84c-.331.16-.576.267-.736.32a1.165 1.165 0 0 1-.464.096.617.617 0 0 1-.432-.16c-.107-.107-.16-.267-.16-.48V10.844c0-.224-.037-.384-.112-.48-.075-.107-.197-.165-.368-.176l-1.104-.048c-.171-.021-.293-.07-.368-.144a.404.404 0 0 1-.096-.272c0-.128.037-.235.112-.32.085-.085.24-.165.464-.24l2.768-.944c.32-.117.571-.197.752-.24.192-.053.357-.08.496-.08.267 0 .459.07.576.208.128.139.192.325.192.56Zm-.72 12.144-.48-.768c.821-1.216 1.755-2.15 2.8-2.8a6.36 6.36 0 0 1 3.44-.992c1.248 0 2.357.32 3.328.96.981.63 1.749 1.51 2.304 2.64.565 1.12.848 2.405.848 3.856 0 1.675-.331 3.12-.992 4.336-.651 1.216-1.531 2.16-2.64 2.832-1.109.661-2.352.992-3.728.992-1.248 0-2.357-.304-3.328-.912-.96-.608-1.739-1.467-2.336-2.576l.736-.736c.533.939 1.173 1.653 1.92 2.144.757.48 1.573.72 2.448.72a3.91 3.91 0 0 0 2.256-.688c.672-.47 1.2-1.179 1.584-2.128.395-.96.592-2.16.592-3.6 0-1.365-.187-2.507-.56-3.424-.363-.917-.869-1.605-1.52-2.064a3.612 3.612 0 0 0-2.192-.704c-.832 0-1.632.24-2.4.72-.757.48-1.451 1.21-2.08 2.192Zm22.691-4.544c1.536 0 2.896.33 4.08.992a7.044 7.044 0 0 1 2.767 2.768c.673 1.173 1.009 2.528 1.009 4.064 0 1.493-.342 2.827-1.024 4a7.278 7.278 0 0 1-2.8 2.768c-1.195.672-2.582 1.008-4.16 1.008-1.536 0-2.896-.33-4.08-.992a7.333 7.333 0 0 1-2.768-2.768c-.672-1.173-1.008-2.523-1.008-4.048 0-1.515.336-2.853 1.008-4.016a7.382 7.382 0 0 1 2.816-2.768c1.194-.672 2.581-1.008 4.16-1.008Zm1.072 14.336c.885-.117 1.605-.475 2.16-1.072.554-.608.928-1.424 1.12-2.448.192-1.024.176-2.23-.048-3.616-.224-1.408-.598-2.576-1.12-3.504-.523-.928-1.158-1.6-1.904-2.016-.747-.416-1.574-.56-2.48-.432-.886.128-1.606.49-2.16 1.088-.555.597-.928 1.408-1.12 2.432-.182 1.024-.16 2.235.064 3.632.224 1.397.597 2.56 1.12 3.488.522.928 1.157 1.6 1.904 2.016.746.416 1.568.56 2.464.432Zm14.631-13.472v12.304c0 .267.048.47.144.608a.832.832 0 0 0 .464.288l.752.16c.182.053.315.123.4.208a.432.432 0 0 1 .128.32.41.41 0 0 1-.176.352c-.106.085-.272.128-.496.128h-5.792c-.224 0-.389-.043-.496-.128a.428.428 0 0 1-.16-.352c0-.128.043-.23.128-.304a.936.936 0 0 1 .384-.208l.784-.176c.203-.053.352-.144.448-.272.107-.139.16-.341.16-.608V19.308c0-.224-.037-.384-.112-.48-.074-.096-.197-.155-.368-.176l-1.104-.032a.779.779 0 0 1-.352-.144.393.393 0 0 1-.112-.288c0-.128.043-.23.128-.304.086-.085.235-.165.448-.24l2.784-.96a7.06 7.06 0 0 1 .752-.24 2.34 2.34 0 0 1 .496-.064c.256 0 .448.07.576.208.128.128.192.31.192.544Zm-1.984-3.696c-.682 0-1.232-.187-1.648-.56-.416-.384-.624-.87-.624-1.456 0-.597.208-1.083.624-1.456.427-.373.976-.56 1.648-.56.672 0 1.222.192 1.648.576.427.373.64.853.64 1.44s-.213 1.072-.64 1.456c-.426.373-.976.56-1.648.56Zm12.575 17.344c.79 0 1.414-.208 1.872-.624.47-.427.704-.97.704-1.632 0-.416-.101-.79-.304-1.12-.192-.341-.544-.645-1.056-.912-.501-.277-1.216-.539-2.144-.784-1.45-.341-2.586-.757-3.408-1.248-.81-.49-1.386-1.05-1.728-1.68a4.377 4.377 0 0 1-.496-2.064c0-1.355.48-2.437 1.44-3.248.96-.81 2.326-1.216 4.096-1.216.672 0 1.222.059 1.648.176.438.117.795.24 1.072.368.288.117.534.176.736.176.203 0 .363-.059.48-.176.128-.128.246-.25.352-.368a.609.609 0 0 1 .448-.176.49.49 0 0 1 .336.128c.096.075.176.219.24.432l1.152 3.472c.086.267.112.49.08.672-.032.17-.144.293-.336.368-.17.075-.325.075-.464 0a1.107 1.107 0 0 1-.384-.384c-.469-.907-.981-1.621-1.536-2.144-.554-.523-1.141-.896-1.76-1.12a5.461 5.461 0 0 0-1.904-.336c-1.002 0-1.754.213-2.256.64-.501.427-.752.997-.752 1.712 0 .427.107.816.32 1.168.214.352.603.677 1.168.976.566.299 1.366.581 2.4.848 1.28.31 2.299.688 3.056 1.136.758.448 1.302.981 1.632 1.6.342.619.512 1.344.512 2.176 0 .832-.213 1.573-.64 2.224-.416.64-1.008 1.141-1.776 1.504-.757.363-1.642.544-2.656.544-.65 0-1.178-.07-1.584-.208a7.481 7.481 0 0 1-1.008-.416 1.635 1.635 0 0 0-.752-.208.645.645 0 0 0-.496.208c-.128.128-.25.261-.368.4a.53.53 0 0 1-.432.224.417.417 0 0 1-.304-.128c-.085-.085-.144-.23-.176-.432l-.704-3.264c-.064-.341-.08-.592-.048-.752a.445.445 0 0 1 .288-.352c.182-.075.336-.064.464.032.139.085.278.25.416.496.63 1.184 1.334 2.032 2.112 2.544.79.512 1.606.768 2.448.768Z"/><g clip-path="url(#a)"><path fill="#E42828" d="M176.655 9.655a4.345 4.345 0 1 0 8.69 0c0-2.414-1.207-4.345-.397-6.034 0 0-1.293.241-2.017 2.172 0 0-2.414-2.414-1.405-5.793 0 0-2.457.965-2.2 4.103.22 2.691-.257 3.138-.257 3.138 0-2.172-1.698-3.138-1.698-3.138.491 2.656-.716 3.38-.716 5.552Z"/><path fill="#FFF0AB" d="M184.136 10.684c0 1.807-1.395 3.35-3.202 3.315-1.701-.032-2.966-1.326-2.83-3.016.06-.755.633-1.977 1.568-3.214l.624.378c-.02-1.53.704-3.56.704-3.56.476 2.14 3.136 2.695 3.136 6.097Z"/><path fill="#FFFDF9" d="M179.793 9.172c-.241 1.449-.724 1.976-.724 2.897 0 .965.865 1.931 1.931 1.931a1.937 1.937 0 0 0 1.931-1.952c-.008-2.885-1.69-4.324-1.69-4.324.242 1.448-.482 2.173-.482 2.173-.302-.453-.966-.725-.966-.725Z"/></g><defs><clipPath id="a"><path fill="#fff" d="M174 0h14v14h-14z"/></clipPath></defs></svg>