<svg xmlns="http://www.w3.org/2000/svg" width="16" height="16" fill="none"><g clip-path="url(#a)"><path fill="#E42828" d="M3.034 11.034a4.966 4.966 0 0 0 9.932 0c0-2.758-1.38-4.965-.454-6.896 0 0-1.478.276-2.305 2.483 0 0-2.759-2.759-1.606-6.621 0 0-2.808 1.103-2.514 4.69.252 3.075-.294 3.586-.294 3.586 0-2.483-1.941-3.586-1.941-3.586.562 3.034-.818 3.862-.818 6.344Z"/><path fill="#FFF0AB" d="M11.584 12.21c0 2.066-1.595 3.83-3.66 3.79-1.943-.038-3.389-1.517-3.234-3.448.069-.862.724-2.259 1.793-3.673l.712.431C7.172 7.563 8 5.241 8 5.241c.544 2.447 3.584 3.08 3.584 6.97Z"/><path fill="#FFFDF9" d="M6.62 10.483c-.275 1.655-.827 2.258-.827 3.31C5.793 14.897 6.781 16 8 16a2.214 2.214 0 0 0 2.207-2.23c-.01-3.298-1.931-4.942-1.931-4.942.276 1.655-.552 2.482-.552 2.482-.345-.517-1.103-.827-1.103-.827Z"/></g><defs><clipPath id="a"><path fill="#fff" d="M0 0h16v16H0z"/></clipPath></defs></svg>