<svg xmlns="http://www.w3.org/2000/svg" width="39" height="38" fill="none"><circle cx="20" cy="19" r="19" fill="#FFF0AB"/><g fill="#E42828" clip-path="url(#a)"><path d="M34.867 18.638c-.146-.17-3.614-4.192-8.498-5.846-1.353-.458-2.698-.69-3.997-.69-4.093 0-7.702 2.264-10.008 4.163-.4.33-.983.33-1.384-.001a22.077 22.077 0 0 0-3.148-2.177.558.558 0 0 0-.832.485v8.856a.558.558 0 0 0 .832.485 22.078 22.078 0 0 0 3.148-2.177 1.09 1.09 0 0 1 1.384 0c2.306 1.898 5.915 4.162 10.008 4.162 1.787 0 3.642-.436 5.514-1.296 4.084-1.876 6.864-5.104 6.98-5.24a.558.558 0 0 0 0-.724Zm-12.495 6.144c-3.763 0-7.134-2.125-9.3-3.908a2.198 2.198 0 0 0-1.399-.5c-.498 0-.996.167-1.402.5a21.72 21.72 0 0 1-2.156 1.569v-1.3h.662a.558.558 0 0 0 0-1.116h-.661v-.47h1.82a.558.558 0 0 0 0-1.115h-1.82v-.47h.661a.558.558 0 0 0 0-1.115h-.661v-1.3c.727.462 1.45.987 2.155 1.568.812.669 1.99.669 2.802 0 2.165-1.782 5.536-3.907 9.299-3.907.904 0 1.837.125 2.781.373a7.157 7.157 0 0 0-1.693 4.616 7.12 7.12 0 0 0 1.095 3.802 7.165 7.165 0 0 0 1.872 1.993c-1.383.518-2.743.78-4.055.78Zm5.296-1.31a5.996 5.996 0 0 1-3.093-5.265 6.04 6.04 0 0 1 1.752-4.247c3.61 1.323 6.426 4.057 7.36 5.04-.815.859-3.064 3.052-6.019 4.472Z"/><path d="M27.462 15.699c-.896 0-1.625.729-1.625 1.625 0 .895.73 1.624 1.625 1.624.896 0 1.625-.729 1.625-1.624 0-.896-.73-1.625-1.625-1.625Zm0 2.134a.51.51 0 1 1 .001-1.02.51.51 0 0 1-.001 1.02ZM22.4 16.35l-.58-.581.55-.55a.558.558 0 0 0-.79-.79l-.944.945a.558.558 0 0 0 0 .79l.975.975a.556.556 0 0 0 .79 0 .558.558 0 0 0 0-.789ZM22.949 22.72l-.581-.58.55-.55a.558.558 0 0 0-.788-.79l-.945.945a.558.558 0 0 0 0 .789l.975.975a.556.556 0 0 0 .789 0 .558.558 0 0 0 0-.788ZM20.632 19.642l-.58-.581.55-.55a.558.558 0 0 0-.789-.79l-.945.945a.558.558 0 0 0 0 .79l.976.975a.556.556 0 0 0 .788 0 .558.558 0 0 0 0-.79ZM16.548 18.087l-.581-.58.55-.551a.558.558 0 0 0-.788-.789l-.945.945a.558.558 0 0 0 0 .789l.975.975a.556.556 0 0 0 .789 0 .558.558 0 0 0 0-.789ZM17.645 21.654l-.58-.581.55-.55a.558.558 0 1 0-.789-.79l-.945.945a.558.558 0 0 0 0 .79l.976.975a.556.556 0 0 0 .788 0 .558.558 0 0 0 0-.79ZM12.13 18.442h-.427a.558.558 0 0 0 0 1.116h.427a.558.558 0 0 0 0-1.116Z"/></g><defs><clipPath id="a"><path fill="#fff" d="M7 5h28v28H7z"/></clipPath></defs></svg>