<svg xmlns="http://www.w3.org/2000/svg" width="42" height="42" fill="none"><circle cx="21" cy="21" r="21" fill="#FFFDF9"/><path fill="#E42828" d="M20.07 31.5h1.974v-9.447H31.5v-1.974h-9.456V10.5H20.07v9.579H10.5v1.974h9.57V31.5Zm.948 10.5c-2.917 0-5.646-.551-8.186-1.653-2.54-1.102-4.763-2.604-6.667-4.506-1.904-1.903-3.407-4.124-4.51-6.664C.552 26.637 0 23.907 0 20.988c0-2.899.551-5.625 1.653-8.177C2.755 10.26 4.257 8.037 6.16 6.146c1.903-1.891 4.124-3.388 6.664-4.491C15.363.552 18.093 0 21.012 0c2.899 0 5.625.551 8.177 1.653 2.552 1.102 4.774 2.598 6.665 4.487 1.891 1.89 3.388 4.111 4.491 6.665C41.448 15.36 42 18.085 42 20.982c0 2.917-.551 5.646-1.653 8.186-1.102 2.54-2.598 4.76-4.487 6.66-1.89 1.898-4.111 3.402-6.665 4.51C26.64 41.446 23.915 42 21.018 42Zm.001-1.975c5.286 0 9.776-1.847 13.468-5.542 3.692-3.696 5.538-8.197 5.538-13.502 0-5.286-1.843-9.776-5.53-13.468C30.806 3.82 26.308 1.975 21 1.975c-5.293 0-9.787 1.843-13.483 5.53C3.822 11.194 1.975 15.692 1.975 21c0 5.293 1.847 9.787 5.542 13.483 3.696 3.695 8.197 5.542 13.502 5.542Z"/></svg>