<svg width="38" height="38" viewBox="0 0 38 38" fill="none" xmlns="http://www.w3.org/2000/svg">
<circle cx="19" cy="19" r="19" fill="#FFF0AB"/>
<path d="M18 28V20.025C16.9333 20.025 15.9083 19.8208 14.925 19.4125C13.9417 19.0042 13.075 18.425 12.325 17.675C11.575 16.925 11 16.0583 10.6 15.075C10.2 14.0917 10 13.0667 10 12V10H12C13.05 10 14.0667 10.2042 15.05 10.6125C16.0333 11.0208 16.9 11.6 17.65 12.35C18.1667 12.8667 18.5958 13.4333 18.9375 14.05C19.2792 14.6667 19.5417 15.325 19.725 16.025C19.8083 15.9083 19.9 15.7958 20 15.6875C20.1 15.5792 20.2083 15.4667 20.325 15.35C21.075 14.6 21.9417 14.0208 22.925 13.6125C23.9083 13.2042 24.9333 13 26 13H28V15C28 16.0667 27.7958 17.0917 27.3875 18.075C26.9792 19.0583 26.4 19.925 25.65 20.675C24.9 21.425 24.0375 22 23.0625 22.4C22.0875 22.8 21.0667 23 20 23V28H18ZM18 18C18 17.2 17.8458 16.4375 17.5375 15.7125C17.2292 14.9875 16.7917 14.3417 16.225 13.775C15.6583 13.2083 15.0125 12.7708 14.2875 12.4625C13.5625 12.1542 12.8 12 12 12C12 12.8 12.15 13.5667 12.45 14.3C12.75 15.0333 13.1833 15.6833 13.75 16.25C14.3167 16.8167 14.9667 17.25 15.7 17.55C16.4333 17.85 17.2 18 18 18ZM20 21C20.8 21 21.5625 20.85 22.2875 20.55C23.0125 20.25 23.6583 19.8167 24.225 19.25C24.7917 18.6833 25.2292 18.0333 25.5375 17.3C25.8458 16.5667 26 15.8 26 15C25.2 15 24.4333 15.1542 23.7 15.4625C22.9667 15.7708 22.3167 16.2083 21.75 16.775C21.1833 17.3417 20.75 17.9875 20.45 18.7125C20.15 19.4375 20 20.2 20 21Z" fill="#E42828"/>
</svg>
